<?xml version="1.0" encoding="UTF-8"?>
<svg id="Ebene_1" xmlns="http://www.w3.org/2000/svg" version="1.1" viewBox="0 0 129.556 96.558">
  <!-- Generator: Adobe Illustrator 29.6.1, SVG Export Plug-In . SVG Version: 2.1.1 Build 9)  -->
  <path d="M84.064,28.254H17.806c-1.104,0-2-.896-2-2s.896-2,2-2h66.258c1.104,0,2,.896,2,2s-.896,2-2,2Z"/>
  <path d="M84.064,37.979H17.806c-1.104,0-2-.896-2-2s.896-2,2-2h66.258c1.104,0,2,.896,2,2s-.896,2-2,2Z"/>
  <path d="M59.594,47.591H17.806c-1.104,0-2-.896-2-2s.896-2,2-2h41.788c1.104,0,2,.896,2,2s-.896,2-2,2Z"/>
  <path d="M89.882,80.565H14.5c-4.136,0-7.5-3.364-7.5-7.5V14.5c0-4.136,3.364-7.5,7.5-7.5h86.369c4.136,0,7.5,3.364,7.5,7.5v42.592c1.14-.182,2.308-.279,3.5-.279s2.36.097,3.5.279V14.5c0-7.995-6.505-14.5-14.5-14.5H14.5C6.505,0,0,6.505,0,14.5v58.565c0,7.995,6.505,14.5,14.5,14.5h77.093c-.934-2.175-1.523-4.531-1.711-7Z"/>
  <path d="M108.018,86.699l-5.851-5.749c.661-.45,1.345-1.562,1.948-1.962.111-.074.178-.146.331-.101l3.583,3.569,11.353-11.343c.119-.068.249-.081.383-.061.274.04,1.759,1.59,1.805,1.9-.184.471-.527.806-.866,1.165"/>
  <path d="M111.869,96.558c-9.752,0-17.687-7.935-17.687-17.688s7.935-17.687,17.687-17.687,17.687,7.935,17.687,17.687-7.935,17.688-17.687,17.688ZM111.869,65.184c-7.547,0-13.687,6.14-13.687,13.687s6.14,13.688,13.687,13.688,13.687-6.141,13.687-13.688-6.14-13.687-13.687-13.687Z"/>
</svg>