<?xml version="1.0" encoding="UTF-8"?>
<svg id="Ebene_1" xmlns="http://www.w3.org/2000/svg" version="1.1" viewBox="0 0 129.556 96.558">
  <!-- Generator: Adobe Illustrator 29.6.1, SVG Export Plug-In . SVG Version: 2.1.1 Build 9)  -->
  <path d="M86.899,36.021c-5.838,0-10.588-4.75-10.588-10.588s4.75-10.589,10.588-10.589,10.588,4.75,10.588,10.589-4.75,10.588-10.588,10.588ZM86.899,18.845c-3.633,0-6.588,2.956-6.588,6.589s2.956,6.588,6.588,6.588,6.588-2.955,6.588-6.588-2.956-6.589-6.588-6.589Z" fill="#019dbd"/>
  <path d="M83.629,59.5c-3.654,0-7.314-1.479-9.938-4.368l-20.347-22.393c-1.586-1.745-3.699-2.713-5.948-2.723h-.036c-2.236,0-4.343.947-5.937,2.669l-22.991,24.841c-.75.811-2.015.861-2.826.109-.811-.75-.86-2.016-.109-2.826l22.991-24.841c2.373-2.563,5.568-3.993,8.927-3.952,3.384.016,6.541,1.447,8.89,4.033l20.347,22.393c3.36,3.696,9.127,4.114,12.856.929l8.237-7.037c.839-.719,2.102-.618,2.819.222s.618,2.103-.222,2.819l-8.237,7.037c-2.426,2.072-5.45,3.088-8.476,3.088Z" fill="#019dbd"/>
  <path d="M89.882,80.565H14.5c-4.136,0-7.5-3.364-7.5-7.5V14.5c0-4.136,3.364-7.5,7.5-7.5h86.369c4.136,0,7.5,3.364,7.5,7.5v42.592c1.14-.182,2.308-.279,3.5-.279s2.36.097,3.5.279V14.5c0-7.995-6.505-14.5-14.5-14.5H14.5C6.505,0,0,6.505,0,14.5v58.565c0,7.995,6.505,14.5,14.5,14.5h77.093c-.934-2.175-1.523-4.531-1.711-7Z" fill="#019dbd"/>
  <path d="M108.018,86.699l-5.851-5.749c.661-.45,1.345-1.562,1.948-1.962.111-.074.178-.146.331-.101l3.583,3.569,11.353-11.343c.119-.068.249-.081.383-.061.274.04,1.759,1.59,1.805,1.9-.184.471-.527.806-.866,1.165" fill="#019dbd"/>
  <path d="M111.869,96.558c-9.752,0-17.687-7.935-17.687-17.688s7.935-17.687,17.687-17.687,17.688,7.935,17.688,17.687-7.935,17.688-17.688,17.688ZM111.869,65.184c-7.547,0-13.687,6.14-13.687,13.687s6.14,13.688,13.687,13.688,13.688-6.141,13.688-13.688-6.14-13.687-13.688-13.687Z" fill="#019dbd"/>
</svg>