<?xml version="1.0" encoding="UTF-8"?>
<svg id="Ebene_1" xmlns="http://www.w3.org/2000/svg" version="1.1" viewBox="0 0 129.556 100.96">
  <!-- Generator: Adobe Illustrator 29.6.1, SVG Export Plug-In . SVG Version: 2.1.1 Build 9)  -->
  <path d="M31.66,49.552h-14.885c-1.654,0-3-1.346-3-3v-14.885c0-1.654,1.346-3,3-3h14.885c1.654,0,3,1.346,3,3v14.885c0,1.654-1.346,3-3,3ZM17.775,45.552h12.885v-12.885h-12.885v12.885Z" fill="#019dbd"/>
  <path d="M59.488,49.552h-14.885c-1.654,0-3-1.346-3-3v-14.885c0-1.654,1.346-3,3-3h14.885c1.654,0,3,1.346,3,3v14.885c0,1.654-1.346,3-3,3ZM45.603,45.552h12.885v-12.885h-12.885v12.885Z" fill="#019dbd"/>
  <path d="M87.316,49.552h-14.885c-1.654,0-3-1.346-3-3v-14.885c0-1.654,1.346-3,3-3h14.885c1.654,0,3,1.346,3,3v14.885c0,1.654-1.346,3-3,3ZM73.431,45.552h12.885v-12.885h-12.885v12.885Z" fill="#019dbd"/>
  <path d="M31.66,80.423h-14.885c-1.654,0-3-1.346-3-3v-14.885c0-1.654,1.346-3,3-3h14.885c1.654,0,3,1.346,3,3v14.885c0,1.654-1.346,3-3,3ZM17.775,76.423h12.885v-12.885h-12.885v12.885Z" fill="#019dbd"/>
  <path d="M59.488,80.423h-14.885c-1.654,0-3-1.346-3-3v-14.885c0-1.654,1.346-3,3-3h14.885c1.654,0,3,1.346,3,3v14.885c0,1.654-1.346,3-3,3ZM45.603,76.423h12.885v-12.885h-12.885v12.885Z" fill="#019dbd"/>
  <path d="M111.869,23.246H3.5c-1.104,0-2-.896-2-2s.896-2,2-2h108.369c1.104,0,2,.896,2,2s-.896,2-2,2Z" fill="#019dbd"/>
  <path d="M25.563,14.917c-1.104,0-2-.896-2-2V2c0-1.104.896-2,2-2s2,.896,2,2v10.917c0,1.104-.896,2-2,2Z" fill="#019dbd"/>
  <path d="M91.822,14.917c-1.104,0-2-.896-2-2V2c0-1.104.896-2,2-2s2,.896,2,2v10.917c0,1.104-.896,2-2,2Z" fill="#019dbd"/>
  <path d="M89.881,84.967H14.5c-4.136,0-7.5-3.364-7.5-7.5V18.901c0-4.136,3.364-7.5,7.5-7.5h86.369c4.136,0,7.5,3.364,7.5,7.5v42.592c1.14-.182,2.309-.279,3.5-.279s2.36.097,3.5.279V18.901c0-7.995-6.505-14.5-14.5-14.5H14.5C6.505,4.401,0,10.906,0,18.901v58.565c0,7.995,6.505,14.5,14.5,14.5h77.092c-.934-2.175-1.523-4.531-1.711-7Z" fill="#019dbd"/>
  <path d="M108.018,91.1l-5.851-5.749c.661-.45,1.345-1.562,1.948-1.962.111-.074.178-.146.331-.101l3.583,3.569,11.353-11.343c.119-.068.249-.081.383-.061.274.04,1.759,1.59,1.805,1.9-.184.471-.527.806-.866,1.165" fill="#019dbd"/>
  <path d="M111.869,100.96c-9.752,0-17.687-7.935-17.687-17.688s7.935-17.687,17.687-17.687,17.687,7.935,17.687,17.687-7.935,17.688-17.687,17.688ZM111.869,69.586c-7.547,0-13.687,6.14-13.687,13.687s6.14,13.688,13.687,13.688,13.687-6.141,13.687-13.688-6.14-13.687-13.687-13.687Z" fill="#019dbd"/>
</svg>