<?xml version="1.0" encoding="UTF-8"?>
<svg id="Ebene_1" xmlns="http://www.w3.org/2000/svg" version="1.1" viewBox="0 0 308.391 167.854">
  <!-- Generator: Adobe Illustrator 29.6.1, SVG Export Plug-In . SVG Version: 2.1.1 Build 9)  -->
  <path d="M180.326,94.463c-.769,2.785-3.319,4.839-6.345,4.839-3.633,0-6.588-2.956-6.588-6.589,0-3.495,2.738-6.355,6.181-6.567-.447-1.25-.753-2.565-.878-3.935-5.233.637-9.303,5.1-9.303,10.502,0,5.839,4.75,10.589,10.588,10.589,4.637,0,8.577-3,10.007-7.158-1.302-.403-2.523-.98-3.662-1.681Z" fill="#fff"/>
  <path d="M170.711,126.779c-3.654,0-7.314-1.479-9.938-4.368l-20.347-22.392c-1.586-1.746-3.699-2.713-5.949-2.724h-.036c-2.236,0-4.343.947-5.937,2.669l-22.991,24.842c-.75.81-2.015.86-2.826.109-.811-.75-.86-2.016-.109-2.826l22.991-24.842c2.359-2.55,5.508-3.952,8.871-3.952.019,0,.037,0,.055,0,3.384.015,6.542,1.447,8.891,4.033l20.347,22.392c3.361,3.696,9.127,4.114,12.856.929l8.237-7.037c.84-.719,2.102-.618,2.82.222s.619,2.102-.221,2.819l-8.237,7.037c-2.426,2.072-5.45,3.088-8.476,3.088Z" fill="#fff"/>
  <path d="M210.73,49.553h-14.885c-1.654,0-3-1.346-3-3v-14.886c0-1.654,1.346-3,3-3h14.885c1.654,0,3,1.346,3,3v14.886c0,1.654-1.346,3-3,3ZM196.845,45.553h12.885v-12.886h-12.885v12.886Z" fill="#fff"/>
  <path d="M238.558,49.553h-14.885c-1.654,0-3-1.346-3-3v-14.886c0-1.654,1.346-3,3-3h14.885c1.654,0,3,1.346,3,3v14.886c0,1.654-1.346,3-3,3ZM224.673,45.553h12.885v-12.886h-12.885v12.886Z" fill="#fff"/>
  <path d="M266.386,49.553h-14.885c-1.654,0-3-1.346-3-3v-14.886c0-1.654,1.346-3,3-3h14.885c1.654,0,3,1.346,3,3v14.886c0,1.654-1.346,3-3,3ZM252.501,45.553h12.885v-12.886h-12.885v12.886Z" fill="#fff"/>
  <path d="M210.73,80.423h-14.885c-1.654,0-3-1.346-3-3v-14.885c0-1.654,1.346-3,3-3h14.885c1.654,0,3,1.346,3,3v14.885c0,1.654-1.346,3-3,3ZM196.845,76.423h12.885v-12.885h-12.885v12.885Z" fill="#fff"/>
  <path d="M238.558,80.423h-14.885c-1.654,0-3-1.346-3-3v-14.885c0-1.654,1.346-3,3-3h14.885c1.654,0,3,1.346,3,3v14.885c0,1.654-1.346,3-3,3ZM224.673,76.423h12.885v-12.885h-12.885v12.885Z" fill="#fff"/>
  <path d="M290.938,23.247h-108.369c-1.104,0-2-.896-2-2s.896-2,2-2h108.369c1.104,0,2,.896,2,2s-.896,2-2,2Z" fill="#fff"/>
  <path d="M204.633,14.917c-1.104,0-2-.896-2-2V2c0-1.104.896-2,2-2s2,.896,2,2v10.917c0,1.104-.896,2-2,2Z" fill="#fff"/>
  <path d="M270.892,14.917c-1.104,0-2-.896-2-2V2c0-1.104.896-2,2-2s2,.896,2,2v10.917c0,1.104-.896,2-2,2Z" fill="#fff"/>
  <path d="M98.251,41.494H31.993c-1.104,0-2-.896-2-2s.896-2,2-2h66.258c1.104,0,2,.896,2,2s-.896,2-2,2Z" fill="#fff"/>
  <path d="M98.251,51.221H31.993c-1.104,0-2-.896-2-2s.896-2,2-2h66.258c1.104,0,2,.896,2,2s-.896,2-2,2Z" fill="#fff"/>
  <path d="M73.781,60.832H31.993c-1.104,0-2-.896-2-2s.896-2,2-2h41.788c1.104,0,2,.896,2,2s-.896,2-2,2Z" fill="#fff"/>
  <path d="M268.645,85.361c0-.132.008-.263.01-.395h-75.085c-4.136,0-7.5-3.364-7.5-7.5V18.901c0-4.136,3.364-7.5,7.5-7.5h86.369c4.136,0,7.5,3.364,7.5,7.5v44.644c1.066-.158,2.156-.242,3.265-.242,1.274,0,2.52.114,3.735.321V18.901c0-7.995-6.505-14.5-14.5-14.5h-86.369c-7.995,0-14.5,6.505-14.5,14.5v58.565c0,7.995,6.505,14.5,14.5,14.5h76.083c-.654-2.086-1.007-4.304-1.007-6.605Z" fill="#fff"/>
  <path d="M286.853,93.189l-5.851-5.749c.661-.45,1.345-1.562,1.948-1.962.111-.074.178-.146.331-.101l3.583,3.569,11.353-11.343c.119-.068.249-.081.383-.061.274.04,1.759,1.59,1.805,1.9-.184.471-.527.806-.866,1.165" fill="#fff"/>
  <path d="M290.704,103.049c-9.753,0-17.688-7.935-17.688-17.688s7.935-17.688,17.688-17.688,17.687,7.935,17.687,17.688-7.935,17.688-17.687,17.688ZM290.704,71.674c-7.547,0-13.688,6.141-13.688,13.688s6.14,13.688,13.688,13.688,13.687-6.141,13.687-13.688-6.14-13.688-13.687-13.688Z" fill="#fff"/>
  <g>
    <path d="M198.614,128.108c1.31,0,2.59.121,3.837.339v-31.587h-7v31.477c1.033-.148,2.089-.229,3.163-.229Z" fill="#fff"/>
    <path d="M176.556,150.167c0-.784.042-1.558.122-2.321h-75.095c-4.136,0-7.5-3.364-7.5-7.5v-58.566c0-4.136,3.364-7.5,7.5-7.5h71.039v-7h-71.039c-7.995,0-14.5,6.505-14.5,14.5v58.566c0,7.995,6.505,14.5,14.5,14.5h75.475c-.326-1.509-.502-3.073-.502-4.679Z" fill="#fff"/>
  </g>
  <path d="M194.764,157.995l-5.851-5.749c.661-.45,1.345-1.562,1.948-1.962.111-.074.178-.146.331-.101l3.583,3.569,11.353-11.343c.119-.068.249-.081.383-.061.274.04,1.759,1.59,1.805,1.9-.184.471-.527.806-.866,1.165" fill="#fff"/>
  <path d="M198.614,167.854c-9.752,0-17.687-7.935-17.687-17.688s7.935-17.688,17.687-17.688,17.687,7.935,17.687,17.688-7.935,17.688-17.687,17.688ZM198.614,136.479c-7.547,0-13.687,6.141-13.687,13.688s6.14,13.688,13.687,13.688,13.687-6.141,13.687-13.688-6.14-13.688-13.687-13.688Z" fill="#fff"/>
  <g>
    <path d="M39.746,96.861c0,1.348-.127,2.665-.359,3.946h41.248v-7h-41.104c.138.999.215,2.017.215,3.054Z" fill="#fff"/>
    <path d="M115.056,13.24H28.687c-7.995,0-14.5,6.505-14.5,14.5v47.341c1.14-.182,2.309-.279,3.5-.279s2.36.097,3.5.279V27.74c0-4.136,3.364-7.5,7.5-7.5h86.369c4.136,0,7.5,3.364,7.5,7.5v34.646h7V27.74c0-7.995-6.505-14.5-14.5-14.5Z" fill="#fff"/>
  </g>
  <path d="M13.837,104.688l-5.851-5.749c.661-.45,1.345-1.562,1.948-1.962.111-.074.178-.146.331-.101l3.583,3.569,11.353-11.343c.119-.068.249-.081.383-.061.274.04,1.759,1.59,1.805,1.9-.184.471-.527.806-.866,1.165" fill="#fff"/>
  <path d="M17.687,114.548c-9.752,0-17.687-7.935-17.687-17.688s7.935-17.687,17.687-17.687,17.687,7.935,17.687,17.687-7.935,17.688-17.687,17.688ZM17.687,83.174c-7.547,0-13.687,6.14-13.687,13.687s6.14,13.688,13.687,13.688,13.687-6.141,13.687-13.688-6.14-13.687-13.687-13.687Z" fill="#fff"/>
</svg>