<?xml version="1.0" encoding="UTF-8"?>
<svg id="Ebene_1" xmlns="http://www.w3.org/2000/svg" xmlns:xlink="http://www.w3.org/1999/xlink" version="1.1" viewBox="0 0 186.551 62.568">
  <!-- Generator: Adobe Illustrator 29.5.1, SVG Export Plug-In . SVG Version: 2.1.0 Build 141)  -->
  <defs>
    <linearGradient id="Unbenannter_Verlauf_3" data-name="Unbenannter Verlauf 3" x1="150.935" y1="49.897" x2="150.935" y2="12.265" gradientUnits="userSpaceOnUse">
      <stop offset="0" stop-color="blue"/>
      <stop offset=".808" stop-color="#3fa9f5"/>
    </linearGradient>
    <linearGradient id="Unbenannter_Verlauf_31" data-name="Unbenannter Verlauf 3" x1="172.87" y1="50.328" x2="172.87" y2="22.872" xlink:href="#Unbenannter_Verlauf_3"/>
    <linearGradient id="Unbenannter_Verlauf_32" data-name="Unbenannter Verlauf 3" x1="24.512" y1="49.077" x2="24.512" y2="0" xlink:href="#Unbenannter_Verlauf_3"/>
    <linearGradient id="Unbenannter_Verlauf_33" data-name="Unbenannter Verlauf 3" x1="29.811" y1="35.368" x2="29.811" y2="5.519" xlink:href="#Unbenannter_Verlauf_3"/>
  </defs>
  <path d="M67.969,24.097c1.52-.816,3.256-1.225,5.208-1.225,2.272,0,4.328.561,6.168,1.68,1.84,1.121,3.295,2.713,4.368,4.776,1.072,2.064,1.608,4.457,1.608,7.176s-.536,5.129-1.608,7.225c-1.073,2.096-2.528,3.72-4.368,4.872-1.84,1.151-3.896,1.728-6.168,1.728-1.952,0-3.672-.4-5.16-1.2-1.488-.799-2.696-1.808-3.624-3.023v16.464h-6.72V23.305h6.72v3.84c.864-1.216,2.056-2.232,3.576-3.048ZM77.472,32.353c-.656-1.168-1.52-2.056-2.592-2.664-1.073-.607-2.232-.912-3.48-.912-1.216,0-2.36.312-3.432.936-1.072.624-1.937,1.529-2.592,2.712-.656,1.185-.984,2.577-.984,4.177s.328,2.992.984,4.176c.655,1.185,1.52,2.088,2.592,2.712,1.072.624,2.216.936,3.432.936,1.248,0,2.407-.319,3.48-.96,1.072-.64,1.936-1.552,2.592-2.735.656-1.184.984-2.592.984-4.225,0-1.6-.329-2.983-.984-4.151Z" fill="#fff"/>
  <path d="M95.112,48.624c-2.048-1.136-3.656-2.743-4.824-4.824-1.168-2.079-1.752-4.479-1.752-7.199s.6-5.12,1.8-7.2c1.2-2.08,2.839-3.688,4.92-4.824,2.08-1.136,4.399-1.704,6.96-1.704s4.879.568,6.96,1.704c2.08,1.137,3.72,2.744,4.92,4.824,1.2,2.08,1.8,4.48,1.8,7.2s-.617,5.12-1.848,7.199c-1.232,2.081-2.896,3.688-4.992,4.824-2.096,1.137-4.44,1.704-7.032,1.704-2.561,0-4.865-.567-6.912-1.704ZM105.456,43.584c1.072-.592,1.928-1.479,2.568-2.664.64-1.184.96-2.623.96-4.319,0-2.528-.665-4.472-1.992-5.832-1.328-1.36-2.952-2.04-4.872-2.04s-3.528.68-4.824,2.04-1.944,3.304-1.944,5.832.631,4.472,1.896,5.832c1.264,1.36,2.856,2.04,4.776,2.04,1.216,0,2.359-.296,3.432-.889Z" fill="#fff"/>
  <path d="M127.559,14.376v35.521h-6.72V14.376h6.72Z" fill="#fff"/>
  <path d="M140.903,14.376v35.521h-6.72V14.376h6.72Z" fill="#fff"/>
  <path d="M147.983,19.008c-.785-.751-1.176-1.688-1.176-2.808s.392-2.056,1.176-2.808c.784-.752,1.768-1.128,2.952-1.128s2.167.376,2.952,1.128c.784.752,1.176,1.688,1.176,2.808s-.393,2.057-1.176,2.808c-.784.753-1.769,1.129-2.952,1.129s-2.168-.376-2.952-1.129ZM154.247,23.305v26.592h-6.72v-26.592h6.72Z" fill="url(#Unbenannter_Verlauf_3)"/>
  <path d="M165.766,48.624c-2.048-1.136-3.656-2.743-4.824-4.824-1.168-2.079-1.752-4.479-1.752-7.199s.6-5.12,1.8-7.2c1.2-2.08,2.839-3.688,4.92-4.824,2.08-1.136,4.399-1.704,6.96-1.704s4.879.568,6.96,1.704c2.08,1.137,3.72,2.744,4.92,4.824,1.2,2.08,1.8,4.48,1.8,7.2s-.617,5.12-1.848,7.199c-1.232,2.081-2.896,3.688-4.992,4.824-2.096,1.137-4.44,1.704-7.032,1.704-2.561,0-4.865-.567-6.912-1.704ZM176.11,43.584c1.072-.592,1.928-1.479,2.568-2.664.64-1.184.96-2.623.96-4.319,0-2.528-.665-4.472-1.992-5.832-1.328-1.36-2.952-2.04-4.872-2.04s-3.528.68-4.824,2.04-1.944,3.304-1.944,5.832.631,4.472,1.896,5.832c1.264,1.36,2.856,2.04,4.776,2.04,1.216,0,2.359-.296,3.432-.889Z" fill="url(#Unbenannter_Verlauf_31)"/>
  <g>
    <path d="M43.067,22.38l5.755-.639c1.539,11.422-5.871,22.741-16.791,26.159C12.812,53.915-5.003,35.862,1.286,16.729,5.681,3.361,21.49-3.899,34.405,2.162c.365.171,1.645.659,1.603,1.103l-2.671,4.818c-4.317-1.938-8.407-2.648-13.078-1.583C5.166,9.94.786,29.983,13.245,39.309c13.276,9.937,31.36-.728,29.822-16.928Z" fill="url(#Unbenannter_Verlauf_32)"/>
    <path d="M46.127,11.583c-2.148,2.23-4.026,4.351-6.289,6.618-4.672,4.68-9.498,9.296-14.17,13.837-.454.442-2.901,3.277-3.198,3.33l-11.156-10.962c1.26-.859,2.565-2.978,3.714-3.741.213-.141.339-.278.63-.192l6.832,6.805L44.137,5.652c.227-.129.476-.154.73-.117.522.077,3.354,3.032,3.442,3.623-.35.898-1.004,1.537-1.652,2.222-.107.113-.429.098-.531.204Z" fill="url(#Unbenannter_Verlauf_33)"/>
  </g>
</svg>