<?xml version="1.0" encoding="UTF-8"?>
<svg id="Ebene_1" xmlns="http://www.w3.org/2000/svg" xmlns:xlink="http://www.w3.org/1999/xlink" version="1.1" viewBox="0 0 49.024 49.077">
  <!-- Generator: Adobe Illustrator 29.5.1, SVG Export Plug-In . SVG Version: 2.1.0 Build 141)  -->
  <defs>
    <linearGradient id="Unbenannter_Verlauf_3" data-name="Unbenannter Verlauf 3" x1="24.512" y1="49.077" x2="24.512" y2="0" gradientUnits="userSpaceOnUse">
      <stop offset="0" stop-color="blue"/>
      <stop offset=".808" stop-color="#3fa9f5"/>
    </linearGradient>
    <linearGradient id="Unbenannter_Verlauf_31" data-name="Unbenannter Verlauf 3" x1="29.811" y1="35.368" x2="29.811" y2="5.519" xlink:href="#Unbenannter_Verlauf_3"/>
  </defs>
  <path d="M43.067,22.38l5.755-.639c1.539,11.422-5.871,22.741-16.791,26.159C12.812,53.915-5.003,35.862,1.286,16.729,5.681,3.361,21.49-3.899,34.405,2.162c.365.171,1.645.659,1.603,1.103l-2.671,4.818c-4.317-1.938-8.407-2.648-13.078-1.583C5.166,9.94.786,29.983,13.245,39.309c13.276,9.937,31.36-.728,29.822-16.928Z" fill="url(#Unbenannter_Verlauf_3)"/>
  <path d="M46.127,11.583c-2.148,2.23-4.026,4.351-6.289,6.618-4.672,4.68-9.498,9.296-14.17,13.837-.454.442-2.901,3.277-3.198,3.33l-11.156-10.962c1.26-.859,2.565-2.978,3.714-3.741.213-.141.339-.278.63-.192l6.832,6.805L44.137,5.652c.227-.129.476-.154.73-.117.522.077,3.354,3.032,3.442,3.623-.35.898-1.004,1.537-1.652,2.222-.107.113-.429.098-.531.204Z" fill="url(#Unbenannter_Verlauf_31)"/>
</svg>